# xmcd
#
# Track frame offsets: 
#        150
#        15283
#        34413
#        45691
#        62113
#        72603
#        87696
#        103085
#        118564
#        135294
#        150155
#        164785
#
# Disc length: 2383 seconds
#
# Revision: 0
# Processed by: cddbd v1.5.2PL0 Copyright (c) Steve Scherf et al.
# Submitted via: ExactAudioCopy v0.95b3
#
DISCID=a1094d0c
DTITLE=Michelle Cupit - Bluegrass Baby
DYEAR=2006
DGENRE=Bluegrass
TTITLE0=Bluegrass Baby
TTITLE1=Dead Man Walking
TTITLE2=The Devil Gets His Due
TTITLE3=Field Of Stone
TTITLE4=Two Lane Highway
TTITLE5=Long Black Hearse
TTITLE6=That Ole Fiddle On The Wall
TTITLE7=Some Things Never Change
TTITLE8=She Played Him Like An Old Violin
TTITLE9=Tin Can
TTITLE10=Stone
TTITLE11=There's A Healer In This House
EXTD=
EXTT0=
EXTT1=
EXTT2=
EXTT3=
EXTT4=
EXTT5=
EXTT6=
EXTT7=
EXTT8=
EXTT9=
EXTT10=
EXTT11=
PLAYORDER=
